<?xml version="1.0" encoding="UTF-8"?>
<!DOCTYPE svg PUBLIC "-//W3C//DTD SVG 1.1//EN" "http://www.w3.org/Graphics/SVG/1.1/DTD/svg11.dtd">
<!-- Creator: CorelDRAW -->
<svg xmlns="http://www.w3.org/2000/svg" xml:space="preserve" width="6.82666in" height="6.82666in" style="shape-rendering:geometricPrecision; text-rendering:geometricPrecision; image-rendering:optimizeQuality; fill-rule:evenodd; clip-rule:evenodd"
viewBox="0 0 6.82666 6.82666"
 xmlns:xlink="http://www.w3.org/1999/xlink">
 <defs>
  <style type="text/css">
   <![CDATA[
    .fil1 {fill:none}
    .fil0 {fill:#FF9800}
    .fil3 {fill:#FFFFFE}
    .fil2 {fill:#FFFFFE;fill-rule:nonzero}
   ]]>
  </style>
 </defs>
 <g id="Layer_x0020_1">
  <metadata id="CorelCorpID_0Corel-Layer"/>
  <rect class="fil0" width="6.82666" height="6.82666"/>
  <g id="_358764400">
   <rect id="_358764160" class="fil1" width="6.82666" height="6.82666"/>
   <rect id="_358764856" class="fil1" x="0.853331" y="0.853331" width="5.12" height="5.12"/>
  </g>
  <path class="fil2" d="M1.95893 3.34292c0.166953,0 0.318118,0.067685 0.427535,0.177102 0.109417,0.109417 0.177102,0.260583 0.177102,0.427535 0,0.166949 -0.067685,0.318114 -0.177102,0.427531 -0.109417,0.109417 -0.260583,0.177102 -0.427535,0.177102 -0.166953,0 -0.318114,-0.067685 -0.427531,-0.177102 -0.109417,-0.109417 -0.177102,-0.260579 -0.177102,-0.427531 0,-0.166953 0.067685,-0.318118 0.177102,-0.427535 0.109417,-0.109417 0.260579,-0.177102 0.427531,-0.177102zm0.276701 0.327937c-0.0707992,-0.0707992 -0.168634,-0.114598 -0.276701,-0.114598 -0.108067,0 -0.205898,0.0437992 -0.276697,0.114598 -0.0707992,0.0707992 -0.114598,0.168634 -0.114598,0.276701 0,0.108067 0.0437992,0.205898 0.114598,0.276697 0.0707992,0.0707992 0.16863,0.114598 0.276697,0.114598 0.108067,0 0.205902,-0.0437992 0.276701,-0.114598 0.0707992,-0.0707992 0.114598,-0.168634 0.114598,-0.276697 0,-0.108067 -0.0437992,-0.205902 -0.114598,-0.276701z"/>
  <path class="fil2" d="M1.99927 4.55072c0.304331,0 0.720445,0.344791 0.926043,0.643476 0.0526969,0.0765551 0.0929961,0.151362 0.115913,0.218366 0.0283622,0.0829134 0.0316181,0.159209 0.00290945,0.221996 -0.036063,0.0788661 -0.109894,0.125437 -0.230012,0.125437l-1.72025 0c-0.113795,0 -0.184594,-0.0422756 -0.219996,-0.114795 -0.0306614,-0.0627795 -0.025248,-0.139929 0.00825591,-0.224382 0.0262638,-0.0662047 0.0704488,-0.139681 0.127138,-0.214539 0.227307,-0.300181 0.682709,-0.655559 0.989996,-0.655559zm0.751043 0.764311c-0.176039,-0.255748 -0.516843,-0.550972 -0.751043,-0.550972 -0.241528,0 -0.622165,0.309295 -0.819996,0.570551 -0.0463425,0.0611969 -0.0810709,0.117748 -0.0996339,0.164539 -0.0113268,0.0285512 -0.0166772,0.0474213 -0.0140906,0.0527205 0.00160236,0.0032874 0.00690157,-0.0052126 0.0283268,-0.0052126l1.72025 0c0.025378,0 0.0365591,-0.000161417 0.0366811,-0.000429134 0.0043622,-0.00954331 -7.87402e-005,-0.0326811 -0.011248,-0.0653346 -0.0166063,-0.0485512 -0.047685,-0.105488 -0.0892441,-0.165862z"/>
  <path class="fil2" d="M4.8777 3.34292c0.166953,0 0.318118,0.067685 0.427535,0.177102 0.109417,0.109417 0.177102,0.260583 0.177102,0.427535 0,0.166949 -0.067685,0.318114 -0.177102,0.427531 -0.109417,0.109417 -0.260583,0.177102 -0.427535,0.177102 -0.166949,0 -0.318114,-0.067685 -0.427531,-0.177102 -0.109417,-0.109417 -0.177102,-0.260579 -0.177102,-0.427531 0,-0.166953 0.067685,-0.318118 0.177102,-0.427535 0.109417,-0.109417 0.260579,-0.177102 0.427531,-0.177102zm0.276701 0.327937c-0.0707992,-0.0707992 -0.168634,-0.114598 -0.276701,-0.114598 -0.108067,0 -0.205898,0.0437992 -0.276697,0.114598 -0.0707992,0.0707992 -0.114598,0.168634 -0.114598,0.276701 0,0.108067 0.0437992,0.205898 0.114598,0.276697 0.0707992,0.0707992 0.168634,0.114598 0.276697,0.114598 0.108067,0 0.205902,-0.0437992 0.276701,-0.114598 0.0707992,-0.0707992 0.114598,-0.168634 0.114598,-0.276697 0,-0.108067 -0.0437992,-0.205902 -0.114598,-0.276701z"/>
  <path class="fil2" d="M4.91805 4.55072c0.304331,0 0.720445,0.344791 0.926043,0.643476 0.0526969,0.0765551 0.0929961,0.151362 0.115913,0.218366 0.0283622,0.0829134 0.0316181,0.159209 0.00290945,0.221996 -0.036063,0.0788661 -0.109894,0.125437 -0.230012,0.125437l-1.72025 0c-0.113795,0 -0.184594,-0.0422756 -0.219996,-0.114795 -0.0306614,-0.0627795 -0.025248,-0.139929 0.00825591,-0.224382 0.0262638,-0.0662047 0.0704488,-0.139681 0.127138,-0.214539 0.227307,-0.300181 0.682709,-0.655559 0.989996,-0.655559zm0.751043 0.764311c-0.176039,-0.255748 -0.516843,-0.550972 -0.751043,-0.550972 -0.241528,0 -0.622165,0.309295 -0.819996,0.570551 -0.0463425,0.0611969 -0.0810709,0.117748 -0.0996339,0.164539 -0.0113268,0.0285512 -0.0166811,0.0474173 -0.0140906,0.0527205 0.00160236,0.0032874 0.00690157,-0.0052126 0.0283268,-0.0052126l1.72025 0c0.025378,0 0.0365591,-0.000161417 0.0366811,-0.000429134 0.0043622,-0.00954331 -7.87402e-005,-0.0326811 -0.011248,-0.0653346 -0.0166063,-0.0485512 -0.047685,-0.105488 -0.0892441,-0.165862z"/>
  <path class="fil2" d="M3.45226 0.782921c0.166953,0 0.318118,0.067685 0.427535,0.177102 0.109417,0.109417 0.177102,0.260583 0.177102,0.427535 0,0.166949 -0.067685,0.318114 -0.177102,0.427531 -0.109417,0.109417 -0.260583,0.177102 -0.427535,0.177102 -0.166953,0 -0.318114,-0.067685 -0.427531,-0.177102 -0.109417,-0.109417 -0.177102,-0.260583 -0.177102,-0.427531 0,-0.166953 0.067685,-0.318118 0.177102,-0.427535 0.109417,-0.109417 0.260579,-0.177102 0.427531,-0.177102zm0.276701 0.327937c-0.0707992,-0.0707992 -0.168634,-0.114598 -0.276701,-0.114598 -0.108067,0 -0.205898,0.0437992 -0.276697,0.114598 -0.0707992,0.0707992 -0.114598,0.168634 -0.114598,0.276701 0,0.108063 0.0437992,0.205898 0.114598,0.276697 0.0707992,0.0707992 0.16863,0.114598 0.276697,0.114598 0.108067,0 0.205902,-0.0437992 0.276701,-0.114598 0.0707992,-0.0707992 0.114598,-0.168634 0.114598,-0.276697 0,-0.108067 -0.0437992,-0.205902 -0.114598,-0.276701z"/>
  <path class="fil2" d="M3.4926 1.99072c0.304331,0 0.720445,0.344791 0.926043,0.643476 0.0526969,0.0765551 0.0929961,0.151362 0.115913,0.218366 0.0283622,0.0829134 0.031622,0.159205 0.00290945,0.221996 -0.036063,0.0788661 -0.109894,0.125437 -0.230012,0.125437l-1.72025 0c-0.113795,0 -0.184594,-0.0422756 -0.219996,-0.114795 -0.0306614,-0.0627795 -0.025248,-0.139933 0.00825591,-0.224382 0.0262638,-0.0662047 0.0704488,-0.139681 0.127138,-0.214539 0.227307,-0.300181 0.682709,-0.655559 0.989996,-0.655559zm0.751043 0.764311c-0.176039,-0.255748 -0.516843,-0.550972 -0.751043,-0.550972 -0.241528,0 -0.622165,0.309295 -0.819996,0.570551 -0.0463425,0.0611969 -0.0810709,0.117748 -0.0996339,0.164539 -0.0113268,0.0285512 -0.0166772,0.0474213 -0.0140906,0.0527205 0.00160236,0.0032874 0.00690157,-0.0052126 0.0283268,-0.0052126l1.72025 0c0.025378,0 0.0365591,-0.000161417 0.0366811,-0.000429134 0.0043622,-0.00953937 -7.87402e-005,-0.0326811 -0.011248,-0.0653346 -0.0166063,-0.0485512 -0.047685,-0.105488 -0.0892441,-0.165862z"/>
  <circle class="fil3" cx="2.61459" cy="1.84993" r="0.143269"/>
  <circle class="fil3" cx="2.10319" cy="2.33864" r="0.143269"/>
  <circle class="fil3" cx="1.77987" cy="3.01186" r="0.143269"/>
  <circle class="fil3" cx="4.30327" cy="1.84993" r="0.143269"/>
  <circle class="fil3" cx="4.81467" cy="2.33864" r="0.143269"/>
  <circle class="fil3" cx="5.13799" cy="3.01186" r="0.143269"/>
 </g>
</svg>
